<!--?xml version="1.0" standalone="no"?-->              <svg id="sw-js-blob-svg" viewBox="0 0 100 100" xmlns="http://www.w3.org/2000/svg">                    <defs>                         <linearGradient id="sw-gradient" x1="0" x2="1" y1="1" y2="0">                            <stop id="stop1" stop-color="rgba(248, 117, 55, 1)" offset="0%"></stop>                            <stop id="stop2" stop-color="rgba(251, 168, 31, 1)" offset="100%"></stop>                        </linearGradient>                    </defs>                <path fill="url(#sw-gradient)" d="M26,-30.8C33.8,-24.4,40.5,-16.3,41.4,-7.8C42.3,0.8,37.5,9.8,32.2,18.3C27,26.7,21.2,34.6,13.6,37.4C6,40.2,-3.5,37.9,-12.4,34.5C-21.3,31,-29.6,26.4,-35.6,19.1C-41.6,11.7,-45.3,1.5,-44,-8C-42.6,-17.5,-36.1,-26.4,-27.9,-32.8C-19.8,-39.1,-9.9,-42.9,-0.4,-42.5C9.1,-42,18.1,-37.2,26,-30.8Z" width="100%" height="100%" transform="translate(50 50)" stroke-width="0" style="transition: all 0.3s ease 0s;"></path>              </svg>