<svg id="wave" style="transform:rotate(0deg); transition: 0.3s" viewBox="0 0 1440 130" version="1.1" xmlns="http://www.w3.org/2000/svg"><defs><linearGradient id="sw-gradient-0" x1="0" x2="0" y1="1" y2="0"><stop stop-color="rgba(0, 0, 0, 1)" offset="0%"></stop><stop stop-color="rgba(0, 0, 0, 1)" offset="100%"></stop></linearGradient></defs><path style="transform:translate(0, 0px); opacity:1" fill="url(#sw-gradient-0)" d="M0,39L40,39C80,39,160,39,240,49.8C320,61,400,82,480,80.2C560,78,640,52,720,54.2C800,56,880,87,960,88.8C1040,91,1120,65,1200,56.3C1280,48,1360,56,1440,56.3C1520,56,1600,48,1680,47.7C1760,48,1840,56,1920,60.7C2000,65,2080,65,2160,56.3C2240,48,2320,30,2400,21.7C2480,13,2560,13,2640,10.8C2720,9,2800,4,2880,17.3C2960,30,3040,61,3120,71.5C3200,82,3280,74,3360,62.8C3440,52,3520,39,3600,43.3C3680,48,3760,69,3840,67.2C3920,65,4000,39,4080,43.3C4160,48,4240,82,4320,91C4400,100,4480,82,4560,65C4640,48,4720,30,4800,34.7C4880,39,4960,65,5040,71.5C5120,78,5200,65,5280,65C5360,65,5440,78,5520,84.5C5600,91,5680,91,5720,91L5760,91L5760,130L5720,130C5680,130,5600,130,5520,130C5440,130,5360,130,5280,130C5200,130,5120,130,5040,130C4960,130,4880,130,4800,130C4720,130,4640,130,4560,130C4480,130,4400,130,4320,130C4240,130,4160,130,4080,130C4000,130,3920,130,3840,130C3760,130,3680,130,3600,130C3520,130,3440,130,3360,130C3280,130,3200,130,3120,130C3040,130,2960,130,2880,130C2800,130,2720,130,2640,130C2560,130,2480,130,2400,130C2320,130,2240,130,2160,130C2080,130,2000,130,1920,130C1840,130,1760,130,1680,130C1600,130,1520,130,1440,130C1360,130,1280,130,1200,130C1120,130,1040,130,960,130C880,130,800,130,720,130C640,130,560,130,480,130C400,130,320,130,240,130C160,130,80,130,40,130L0,130Z"></path></svg>